<?xml version="1.0" encoding="utf-8"?>
<!-- Generator: Adobe Illustrator 24.3.0, SVG Export Plug-In . SVG Version: 6.00 Build 0)  -->
<svg version="1.1" id="MAIN_GRAPHICS" xmlns="http://www.w3.org/2000/svg" xmlns:xlink="http://www.w3.org/1999/xlink" x="0px"
	 y="0px" width="820px" height="627.411px" viewBox="0 0 820 627.411" style="enable-background:new 0 0 820 627.411;"
	 xml:space="preserve">
<style type="text/css">
	.st0{fill:#333333;}
	.st1{fill:#FFFFFF;}
	.st2{fill:#80BC00;}
	.st3{fill:#318DDE;}
</style>
<g>
	<g>
		<rect x="402.242" y="47.023" class="st0" width="4.103" height="32.706"/>
		<g>
			<polygon class="st0" points="410.43,77.933 404.293,88.56 398.157,77.933 			"/>
		</g>
	</g>
</g>
<rect x="330.225" y="513.1" class="st0" width="148.137" height="31.568"/>
<g>
	<path class="st1" d="M343.388,524.765h7.942v1.707h-6.067v2.911h5.381v1.708h-5.381v4.345h-1.875V524.765z"/>
	<path class="st1" d="M354.437,524.765h1.875v10.671h-1.875V524.765z"/>
	<path class="st1" d="M360.106,524.765h1.738l5.716,7.378v-7.378h1.844v10.671h-1.57l-5.884-7.592v7.592h-1.844V524.765z"/>
	<path class="st1" d="M376.871,524.688h1.738l4.695,10.747h-1.981l-1.083-2.576h-5.045l-1.098,2.576h-1.92L376.871,524.688z
		 M379.554,531.197l-1.844-4.268l-1.829,4.268H379.554z"/>
	<path class="st1" d="M386.075,524.765h1.875v8.964h5.609v1.707h-7.484V524.765z"/>
	<path class="st1" d="M401.971,524.765h4.756c1.341,0,2.393,0.396,3.079,1.067c0.564,0.578,0.884,1.371,0.884,2.301v0.031
		c0,1.753-1.052,2.805-2.53,3.231l2.881,4.04h-2.225l-2.622-3.72h-2.347v3.72h-1.875V524.765z M406.589,530.055
		c1.341,0,2.195-0.701,2.195-1.784v-0.03c0-1.144-0.823-1.769-2.21-1.769h-2.729v3.583H406.589z"/>
	<path class="st1" d="M413.934,524.765h7.911v1.677h-6.036v2.774h5.351v1.677h-5.351v2.865h6.112v1.678h-7.987V524.765z"/>
	<path class="st1" d="M424.372,533.881l1.128-1.342c1.021,0.884,2.059,1.387,3.369,1.387c1.158,0,1.891-0.549,1.891-1.342v-0.029
		c0-0.763-0.428-1.174-2.409-1.632c-2.271-0.549-3.552-1.22-3.552-3.186v-0.03c0-1.83,1.524-3.095,3.644-3.095
		c1.555,0,2.789,0.472,3.872,1.341l-1.007,1.418c-0.96-0.717-1.92-1.098-2.896-1.098c-1.098,0-1.738,0.564-1.738,1.266v0.03
		c0,0.823,0.488,1.188,2.546,1.677c2.256,0.549,3.414,1.357,3.414,3.125v0.03c0,1.997-1.569,3.187-3.811,3.187
		C427.192,535.588,425.652,535.023,424.372,533.881z"/>
	<path class="st1" d="M435.62,530.908v-6.144h1.875v6.067c0,1.98,1.021,3.033,2.698,3.033c1.661,0,2.683-0.991,2.683-2.957v-6.144
		h1.875v6.052c0,3.186-1.799,4.786-4.588,4.786C437.389,535.603,435.62,534.002,435.62,530.908z"/>
	<path class="st1" d="M448.27,524.765h1.875v8.964h5.609v1.707h-7.484V524.765z"/>
	<path class="st1" d="M459.746,526.502h-3.385v-1.737h8.659v1.737h-3.385v8.934h-1.89V526.502z"/>
</g>
<path class="st0" d="M561.01,458.051H247.577v-35.669H561.01V458.051z M251.679,453.949h305.229v-27.466H251.679V453.949z"/>
<g>
	<path class="st0" d="M261.816,435.098h1.997l3.247,5.045l3.247-5.045h1.997v10.67h-1.875v-7.652l-3.369,5.03h-0.061l-3.338-4.999
		v7.621h-1.844V435.098z"/>
	<path class="st0" d="M279.77,435.021h1.738l4.695,10.746h-1.981l-1.083-2.576h-5.045l-1.098,2.576h-1.92L279.77,435.021z
		 M282.452,441.53l-1.844-4.269l-1.829,4.269H282.452z"/>
	<path class="st0" d="M287.922,444.197l1.234-1.28c0.625,0.809,1.25,1.266,2.149,1.266c1.006,0,1.692-0.671,1.692-2.104v-6.981
		h1.936v7.042c0,1.266-0.381,2.211-1.006,2.836s-1.524,0.944-2.591,0.944C289.69,445.92,288.623,445.158,287.922,444.197z"/>
	<path class="st0" d="M297.98,440.463v-0.03c0-3.003,2.317-5.519,5.594-5.519s5.564,2.485,5.564,5.488v0.03
		c0,3.003-2.317,5.519-5.594,5.519S297.98,443.466,297.98,440.463z M307.172,440.463v-0.03c0-2.073-1.509-3.796-3.628-3.796
		c-2.119,0-3.598,1.692-3.598,3.766v0.03c0,2.073,1.509,3.78,3.628,3.78C305.693,444.213,307.172,442.536,307.172,440.463z"/>
	<path class="st0" d="M312.352,435.098h4.756c1.341,0,2.393,0.396,3.079,1.066c0.564,0.579,0.884,1.372,0.884,2.302v0.031
		c0,1.753-1.052,2.805-2.53,3.231l2.881,4.039h-2.226l-2.622-3.719h-2.347v3.719h-1.875V435.098z M316.97,440.387
		c1.341,0,2.195-0.701,2.195-1.783v-0.03c0-1.144-0.823-1.769-2.21-1.769h-2.729v3.582H316.97z"/>
	<path class="st0" d="M324.422,435.098h1.875v10.67h-1.875V435.098z"/>
	<path class="st0" d="M332.713,436.835h-3.384v-1.737h8.658v1.737h-3.384v8.933h-1.89V436.835z"/>
	<path class="st0" d="M344.052,441.561l-4.238-6.463h2.226l2.973,4.71l3.018-4.71h2.149l-4.238,6.417v4.253h-1.89V441.561z"/>
	<path class="st0" d="M357.37,435.098h2.073l3.216,8.201l3.201-8.201h2.028l-4.421,10.746h-1.662L357.37,435.098z"/>
	<path class="st0" d="M369.517,440.463v-0.03c0-3.003,2.317-5.519,5.594-5.519s5.564,2.485,5.564,5.488v0.03
		c0,3.003-2.317,5.519-5.594,5.519S369.517,443.466,369.517,440.463z M378.708,440.463v-0.03c0-2.073-1.509-3.796-3.628-3.796
		c-2.119,0-3.598,1.692-3.598,3.766v0.03c0,2.073,1.509,3.78,3.628,3.78C377.23,444.213,378.708,442.536,378.708,440.463z"/>
	<path class="st0" d="M385.931,436.835h-3.384v-1.737h8.658v1.737h-3.384v8.933h-1.89V436.835z"/>
	<path class="st0" d="M394.236,435.098h1.875v10.67h-1.875V435.098z"/>
	<path class="st0" d="M399.905,435.098h1.738l5.716,7.378v-7.378h1.844v10.67h-1.57l-5.884-7.591v7.591h-1.844V435.098z"/>
	<path class="st0" d="M412.418,440.463v-0.03c0-2.987,2.286-5.519,5.503-5.519c1.859,0,3.003,0.519,4.101,1.448l-1.189,1.418
		c-0.823-0.701-1.631-1.144-2.987-1.144c-1.967,0-3.46,1.723-3.46,3.766v0.03c0,2.195,1.447,3.811,3.628,3.811
		c1.006,0,1.92-0.319,2.576-0.808v-1.997h-2.729v-1.631h4.542v4.481c-1.052,0.899-2.561,1.662-4.451,1.662
		C414.613,445.951,412.418,443.572,412.418,440.463z"/>
	<path class="st0" d="M436.438,433.604h1.601l-6.89,14.115h-1.601L436.438,433.604z"/>
	<path class="st0" d="M449.483,435.021h1.737l4.695,10.746h-1.981l-1.082-2.576h-5.046l-1.098,2.576h-1.921L449.483,435.021z
		 M452.166,441.53l-1.845-4.269l-1.829,4.269H452.166z"/>
	<path class="st0" d="M456.248,435.098h2.073l3.217,8.201l3.201-8.201h2.027l-4.421,10.746h-1.661L456.248,435.098z"/>
	<path class="st0" d="M469.537,435.098h7.911v1.677h-6.036v2.774h5.351v1.677h-5.351v2.865h6.112v1.677h-7.987V435.098z"/>
	<path class="st0" d="M480.693,435.098h4.756c1.342,0,2.394,0.396,3.079,1.066c0.564,0.579,0.884,1.372,0.884,2.302v0.031
		c0,1.753-1.052,2.805-2.53,3.231l2.881,4.039h-2.226l-2.621-3.719h-2.348v3.719h-1.875V435.098z M485.312,440.387
		c1.342,0,2.195-0.701,2.195-1.783v-0.03c0-1.144-0.823-1.769-2.21-1.769h-2.729v3.582H485.312z"/>
	<path class="st0" d="M496.437,435.021h1.737l4.695,10.746h-1.981l-1.082-2.576h-5.046l-1.098,2.576h-1.921L496.437,435.021z
		 M499.119,441.53l-1.845-4.269l-1.829,4.269H499.119z"/>
	<path class="st0" d="M504.498,440.463v-0.03c0-2.987,2.286-5.519,5.503-5.519c1.859,0,3.003,0.519,4.101,1.448l-1.189,1.418
		c-0.823-0.701-1.631-1.144-2.987-1.144c-1.967,0-3.46,1.723-3.46,3.766v0.03c0,2.195,1.447,3.811,3.628,3.811
		c1.006,0,1.92-0.319,2.576-0.808v-1.997h-2.729v-1.631h4.542v4.481c-1.052,0.899-2.561,1.662-4.451,1.662
		C506.693,445.951,504.498,443.572,504.498,440.463z"/>
	<path class="st0" d="M517.97,435.098h1.875v10.67h-1.875V435.098z"/>
	<path class="st0" d="M523.64,435.098h1.737l5.717,7.378v-7.378h1.845v10.67h-1.57l-5.884-7.591v7.591h-1.845V435.098z"/>
	<path class="st0" d="M536.15,440.463v-0.03c0-2.987,2.286-5.519,5.503-5.519c1.859,0,3.003,0.519,4.101,1.448l-1.189,1.418
		c-0.823-0.701-1.631-1.144-2.987-1.144c-1.967,0-3.46,1.723-3.46,3.766v0.03c0,2.195,1.447,3.811,3.628,3.811
		c1.006,0,1.92-0.319,2.576-0.808v-1.997h-2.729v-1.631h4.542v4.481c-1.052,0.899-2.561,1.662-4.451,1.662
		C538.346,445.951,536.15,443.572,536.15,440.463z"/>
</g>
<g>
	<path class="st0" d="M73.596,279.144h3.273c2.639,0,4.462,1.811,4.462,4.174v0.024c0,2.363-1.823,4.198-4.462,4.198h-3.273V279.144
		z M75.443,280.811v5.062h1.427c1.512,0,2.531-1.02,2.531-2.507v-0.024c0-1.487-1.02-2.531-2.531-2.531H75.443z"/>
	<path class="st0" d="M83.724,279.144h6.332v1.643h-4.497v1.703h3.957v1.643h-3.957v1.763h4.558v1.643h-6.393V279.144z"/>
	<path class="st0" d="M92.136,283.365v-0.024c0-2.387,1.799-4.341,4.378-4.341c1.583,0,2.53,0.527,3.31,1.295l-1.175,1.355
		c-0.648-0.588-1.308-0.948-2.147-0.948c-1.415,0-2.435,1.175-2.435,2.615v0.024c0,1.439,0.996,2.639,2.435,2.639
		c0.96,0,1.548-0.384,2.207-0.983l1.176,1.187c-0.864,0.924-1.823,1.5-3.442,1.5C93.971,287.683,92.136,285.776,92.136,283.365z"/>
	<path class="st0" d="M102.192,279.144h1.847v8.396h-1.847V279.144z"/>
	<path class="st0" d="M106.307,286.316l1.092-1.308c0.755,0.624,1.547,1.02,2.506,1.02c0.756,0,1.212-0.3,1.212-0.792v-0.024
		c0-0.468-0.288-0.708-1.691-1.067c-1.69-0.432-2.782-0.899-2.782-2.567v-0.024c0-1.523,1.224-2.53,2.938-2.53
		c1.224,0,2.267,0.384,3.118,1.067l-0.959,1.391c-0.744-0.516-1.476-0.828-2.184-0.828c-0.707,0-1.079,0.324-1.079,0.731v0.024
		c0,0.551,0.359,0.731,1.812,1.103c1.702,0.444,2.662,1.056,2.662,2.519v0.024c0,1.667-1.271,2.603-3.082,2.603
		C108.598,287.659,107.315,287.215,106.307,286.316z"/>
	<path class="st0" d="M115.391,279.144h1.847v8.396h-1.847V279.144z"/>
	<path class="st0" d="M119.711,283.365v-0.024c0-2.387,1.883-4.341,4.474-4.341s4.449,1.931,4.449,4.317v0.024
		c0,2.387-1.883,4.342-4.474,4.342C121.571,287.683,119.711,285.752,119.711,283.365z M126.704,283.365v-0.024
		c0-1.439-1.056-2.639-2.543-2.639s-2.519,1.175-2.519,2.615v0.024c0,1.439,1.056,2.639,2.543,2.639
		S126.704,284.805,126.704,283.365z"/>
	<path class="st0" d="M131.028,279.144h1.703l3.934,5.169v-5.169h1.823v8.396h-1.571l-4.066-5.337v5.337h-1.822V279.144z"/>
	<path class="st0" d="M147.549,280.847h-2.554v-1.703h6.956v1.703h-2.555v6.692h-1.848V280.847z"/>
	<path class="st0" d="M154.116,279.144h3.838c1.067,0,1.895,0.3,2.446,0.852c0.468,0.468,0.72,1.127,0.72,1.919v0.024
		c0,1.355-0.731,2.207-1.799,2.603l2.051,2.999h-2.159l-1.799-2.687h-1.451v2.687h-1.847V279.144z M157.833,283.222
		c0.899,0,1.415-0.48,1.415-1.188v-0.024c0-0.792-0.552-1.2-1.451-1.2h-1.835v2.411H157.833z"/>
	<path class="st0" d="M163.535,279.144h6.332v1.643h-4.497v1.703h3.957v1.643h-3.957v1.763h4.558v1.643h-6.393V279.144z"/>
	<path class="st0" d="M172.319,279.144h6.332v1.643h-4.497v1.703h3.957v1.643h-3.957v1.763h4.558v1.643h-6.393V279.144z"/>
	<path class="st0" d="M180.695,282.946h3.694v1.751h-3.694V282.946z"/>
	<path class="st0" d="M187.509,280.955l-1.463,0.36l-0.384-1.511l2.41-0.72h1.26v8.456h-1.823V280.955z"/>
</g>
<g>
	<path class="st0" d="M346.004,279.144h3.273c2.639,0,4.462,1.811,4.462,4.174v0.024c0,2.363-1.823,4.198-4.462,4.198h-3.273
		V279.144z M347.851,280.811v5.062h1.427c1.512,0,2.531-1.02,2.531-2.507v-0.024c0-1.487-1.02-2.531-2.531-2.531H347.851z"/>
	<path class="st0" d="M356.132,279.144h6.332v1.643h-4.497v1.703h3.957v1.643h-3.957v1.763h4.558v1.643h-6.393V279.144z"/>
	<path class="st0" d="M364.544,283.365v-0.024c0-2.387,1.799-4.341,4.378-4.341c1.583,0,2.53,0.527,3.31,1.295l-1.175,1.355
		c-0.648-0.588-1.308-0.948-2.147-0.948c-1.415,0-2.435,1.175-2.435,2.615v0.024c0,1.439,0.996,2.639,2.435,2.639
		c0.96,0,1.548-0.384,2.207-0.983l1.176,1.187c-0.864,0.924-1.823,1.5-3.442,1.5C366.379,287.683,364.544,285.776,364.544,283.365z"
		/>
	<path class="st0" d="M374.6,279.144h1.847v8.396H374.6V279.144z"/>
	<path class="st0" d="M378.715,286.316l1.092-1.308c0.755,0.624,1.547,1.02,2.506,1.02c0.756,0,1.212-0.3,1.212-0.792v-0.024
		c0-0.468-0.288-0.708-1.691-1.067c-1.69-0.432-2.782-0.899-2.782-2.567v-0.024c0-1.523,1.224-2.53,2.938-2.53
		c1.224,0,2.267,0.384,3.118,1.067l-0.959,1.391c-0.744-0.516-1.476-0.828-2.184-0.828c-0.707,0-1.079,0.324-1.079,0.731v0.024
		c0,0.551,0.359,0.731,1.812,1.103c1.702,0.444,2.662,1.056,2.662,2.519v0.024c0,1.667-1.271,2.603-3.082,2.603
		C381.006,287.659,379.723,287.215,378.715,286.316z"/>
	<path class="st0" d="M387.799,279.144h1.847v8.396h-1.847V279.144z"/>
	<path class="st0" d="M392.119,283.365v-0.024c0-2.387,1.883-4.341,4.474-4.341s4.449,1.931,4.449,4.317v0.024
		c0,2.387-1.883,4.342-4.474,4.342C393.979,287.683,392.119,285.752,392.119,283.365z M399.111,283.365v-0.024
		c0-1.439-1.056-2.639-2.543-2.639s-2.519,1.175-2.519,2.615v0.024c0,1.439,1.056,2.639,2.543,2.639
		S399.111,284.805,399.111,283.365z"/>
	<path class="st0" d="M403.436,279.144h1.703l3.934,5.169v-5.169h1.823v8.396h-1.571l-4.066-5.337v5.337h-1.822V279.144z"/>
	<path class="st0" d="M419.957,280.847h-2.554v-1.703h6.956v1.703h-2.555v6.692h-1.848V280.847z"/>
	<path class="st0" d="M426.523,279.144h3.838c1.067,0,1.895,0.3,2.446,0.852c0.468,0.468,0.72,1.127,0.72,1.919v0.024
		c0,1.355-0.731,2.207-1.799,2.603l2.051,2.999h-2.159l-1.799-2.687h-1.451v2.687h-1.847V279.144z M430.241,283.222
		c0.899,0,1.415-0.48,1.415-1.188v-0.024c0-0.792-0.552-1.2-1.451-1.2h-1.835v2.411H430.241z"/>
	<path class="st0" d="M435.942,279.144h6.332v1.643h-4.497v1.703h3.957v1.643h-3.957v1.763h4.558v1.643h-6.393V279.144z"/>
	<path class="st0" d="M444.727,279.144h6.332v1.643h-4.497v1.703h3.957v1.643h-3.957v1.763h4.558v1.643h-6.393V279.144z"/>
	<path class="st0" d="M453.103,282.946h3.694v1.751h-3.694V282.946z"/>
	<path class="st0" d="M459.917,280.955l-1.463,0.36l-0.384-1.511l2.41-0.72h1.26v8.456h-1.823V280.955z"/>
</g>
<g>
	<path class="st0" d="M620.234,279.144h3.273c2.639,0,4.462,1.811,4.462,4.174v0.024c0,2.363-1.823,4.198-4.462,4.198h-3.273
		V279.144z M622.081,280.811v5.062h1.427c1.512,0,2.531-1.02,2.531-2.507v-0.024c0-1.487-1.02-2.531-2.531-2.531H622.081z"/>
	<path class="st0" d="M630.362,279.144h6.332v1.643h-4.497v1.703h3.957v1.643h-3.957v1.763h4.558v1.643h-6.393V279.144z"/>
	<path class="st0" d="M638.774,283.365v-0.024c0-2.387,1.799-4.341,4.378-4.341c1.583,0,2.53,0.527,3.31,1.295l-1.175,1.355
		c-0.648-0.588-1.308-0.948-2.147-0.948c-1.415,0-2.435,1.175-2.435,2.615v0.024c0,1.439,0.996,2.639,2.435,2.639
		c0.96,0,1.548-0.384,2.207-0.983l1.176,1.187c-0.864,0.924-1.823,1.5-3.442,1.5C640.609,287.683,638.774,285.776,638.774,283.365z"
		/>
	<path class="st0" d="M648.83,279.144h1.847v8.396h-1.847V279.144z"/>
	<path class="st0" d="M652.945,286.316l1.092-1.308c0.755,0.624,1.547,1.02,2.506,1.02c0.756,0,1.212-0.3,1.212-0.792v-0.024
		c0-0.468-0.288-0.708-1.691-1.067c-1.69-0.432-2.782-0.899-2.782-2.567v-0.024c0-1.523,1.224-2.53,2.938-2.53
		c1.224,0,2.267,0.384,3.118,1.067l-0.959,1.391c-0.744-0.516-1.476-0.828-2.184-0.828c-0.707,0-1.079,0.324-1.079,0.731v0.024
		c0,0.551,0.359,0.731,1.812,1.103c1.702,0.444,2.662,1.056,2.662,2.519v0.024c0,1.667-1.271,2.603-3.082,2.603
		C655.236,287.659,653.953,287.215,652.945,286.316z"/>
	<path class="st0" d="M662.029,279.144h1.847v8.396h-1.847V279.144z"/>
	<path class="st0" d="M666.35,283.365v-0.024c0-2.387,1.883-4.341,4.474-4.341s4.449,1.931,4.449,4.317v0.024
		c0,2.387-1.883,4.342-4.474,4.342C668.209,287.683,666.35,285.752,666.35,283.365z M673.342,283.365v-0.024
		c0-1.439-1.056-2.639-2.543-2.639s-2.519,1.175-2.519,2.615v0.024c0,1.439,1.056,2.639,2.543,2.639
		S673.342,284.805,673.342,283.365z"/>
	<path class="st0" d="M677.666,279.144h1.703l3.934,5.169v-5.169h1.823v8.396h-1.571l-4.066-5.337v5.337h-1.822V279.144z"/>
	<path class="st0" d="M694.188,280.847h-2.554v-1.703h6.956v1.703h-2.555v6.692h-1.848V280.847z"/>
	<path class="st0" d="M700.754,279.144h3.838c1.067,0,1.895,0.3,2.446,0.852c0.468,0.468,0.72,1.127,0.72,1.919v0.024
		c0,1.355-0.731,2.207-1.799,2.603l2.051,2.999h-2.159l-1.799-2.687h-1.451v2.687h-1.847V279.144z M704.472,283.222
		c0.899,0,1.415-0.48,1.415-1.188v-0.024c0-0.792-0.552-1.2-1.451-1.2h-1.835v2.411H704.472z"/>
	<path class="st0" d="M710.173,279.144h6.332v1.643h-4.497v1.703h3.957v1.643h-3.957v1.763h4.558v1.643h-6.393V279.144z"/>
	<path class="st0" d="M718.957,279.144h6.332v1.643h-4.497v1.703h3.957v1.643h-3.957v1.763h4.558v1.643h-6.393V279.144z"/>
	<path class="st0" d="M727.333,282.946h3.694v1.751h-3.694V282.946z"/>
	<path class="st0" d="M734.147,280.955l-1.463,0.36l-0.384-1.511l2.41-0.72h1.26v8.456h-1.823V280.955z"/>
</g>
<g>
	<path class="st0" d="M101.922,351.289h3.838c1.067,0,1.895,0.3,2.446,0.852c0.468,0.468,0.72,1.127,0.72,1.919v0.024
		c0,1.355-0.731,2.207-1.799,2.603l2.051,2.999h-2.159l-1.799-2.687h-1.451v2.687h-1.847V351.289z M105.64,355.367
		c0.899,0,1.415-0.48,1.415-1.188v-0.024c0-0.792-0.552-1.2-1.451-1.2h-1.835v2.411H105.64z"/>
	<path class="st0" d="M111.342,351.289h6.332v1.643h-4.497v1.703h3.957v1.643h-3.957v1.763h4.558v1.643h-6.393V351.289z"/>
	<path class="st0" d="M119.55,358.461l1.092-1.308c0.755,0.624,1.547,1.02,2.507,1.02c0.755,0,1.211-0.3,1.211-0.792v-0.024
		c0-0.468-0.288-0.708-1.691-1.067c-1.69-0.432-2.782-0.899-2.782-2.567v-0.024c0-1.523,1.224-2.53,2.938-2.53
		c1.224,0,2.267,0.384,3.118,1.067l-0.959,1.391c-0.744-0.516-1.476-0.828-2.184-0.828c-0.707,0-1.079,0.324-1.079,0.731v0.024
		c0,0.551,0.359,0.731,1.811,1.103c1.703,0.444,2.663,1.056,2.663,2.519v0.024c0,1.667-1.271,2.603-3.082,2.603
		C121.841,359.804,120.558,359.36,119.55,358.461z"/>
	<path class="st0" d="M128.418,356.086v-4.797h1.847v4.75c0,1.367,0.684,2.075,1.811,2.075c1.128,0,1.812-0.684,1.812-2.015v-4.81
		h1.847v4.737c0,2.543-1.427,3.79-3.682,3.79S128.418,358.557,128.418,356.086z"/>
	<path class="st0" d="M138.365,351.289h1.847v6.716h4.186v1.679h-6.032V351.289z"/>
	<path class="st0" d="M147.291,352.992h-2.554v-1.703h6.956v1.703h-2.555v6.692h-1.848V352.992z"/>
	<path class="st0" d="M152.369,355.091h3.694v1.751h-3.694V355.091z"/>
	<path class="st0" d="M159.185,353.1l-1.463,0.36l-0.384-1.511l2.41-0.72h1.26v8.456h-1.823V353.1z"/>
</g>
<g>
	<path class="st0" d="M372.943,351.289h3.838c1.067,0,1.895,0.3,2.446,0.852c0.468,0.468,0.72,1.127,0.72,1.919v0.024
		c0,1.355-0.731,2.207-1.799,2.603l2.051,2.999h-2.159l-1.799-2.687h-1.451v2.687h-1.847V351.289z M376.661,355.367
		c0.899,0,1.415-0.48,1.415-1.188v-0.024c0-0.792-0.552-1.2-1.451-1.2h-1.835v2.411H376.661z"/>
	<path class="st0" d="M382.363,351.289h6.332v1.643h-4.497v1.703h3.957v1.643h-3.957v1.763h4.558v1.643h-6.393V351.289z"/>
	<path class="st0" d="M390.571,358.461l1.092-1.308c0.755,0.624,1.547,1.02,2.506,1.02c0.756,0,1.212-0.3,1.212-0.792v-0.024
		c0-0.468-0.288-0.708-1.691-1.067c-1.69-0.432-2.782-0.899-2.782-2.567v-0.024c0-1.523,1.224-2.53,2.938-2.53
		c1.224,0,2.267,0.384,3.118,1.067l-0.959,1.391c-0.744-0.516-1.476-0.828-2.184-0.828c-0.707,0-1.079,0.324-1.079,0.731v0.024
		c0,0.551,0.359,0.731,1.812,1.103c1.702,0.444,2.662,1.056,2.662,2.519v0.024c0,1.667-1.271,2.603-3.082,2.603
		C392.862,359.804,391.579,359.36,390.571,358.461z"/>
	<path class="st0" d="M399.439,356.086v-4.797h1.847v4.75c0,1.367,0.684,2.075,1.811,2.075c1.128,0,1.812-0.684,1.812-2.015v-4.81
		h1.847v4.737c0,2.543-1.427,3.79-3.682,3.79S399.439,358.557,399.439,356.086z"/>
	<path class="st0" d="M409.387,351.289h1.847v6.716h4.186v1.679h-6.032V351.289z"/>
	<path class="st0" d="M418.312,352.992h-2.554v-1.703h6.956v1.703h-2.555v6.692h-1.848V352.992z"/>
	<path class="st0" d="M423.391,355.091h3.694v1.751h-3.694V355.091z"/>
	<path class="st0" d="M429.019,358.221l2.794-2.291c1.044-0.864,1.451-1.319,1.451-2.015c0-0.708-0.468-1.091-1.127-1.091
		c-0.647,0-1.092,0.36-1.715,1.127l-1.296-1.043c0.828-1.127,1.632-1.739,3.131-1.739c1.738,0,2.891,1.019,2.891,2.59v0.024
		c0,1.403-0.72,2.099-2.207,3.25l-1.367,1.055h3.657v1.595h-6.212V358.221z"/>
</g>
<g>
	<path class="st0" d="M646.173,351.289h3.838c1.067,0,1.895,0.3,2.446,0.852c0.468,0.468,0.72,1.127,0.72,1.919v0.024
		c0,1.355-0.731,2.207-1.799,2.603l2.051,2.999h-2.159l-1.799-2.687h-1.451v2.687h-1.847V351.289z M649.891,355.367
		c0.899,0,1.415-0.48,1.415-1.188v-0.024c0-0.792-0.552-1.2-1.451-1.2h-1.835v2.411H649.891z"/>
	<path class="st0" d="M655.593,351.289h6.332v1.643h-4.497v1.703h3.957v1.643h-3.957v1.763h4.558v1.643h-6.393V351.289z"/>
	<path class="st0" d="M663.801,358.461l1.092-1.308c0.755,0.624,1.547,1.02,2.506,1.02c0.756,0,1.212-0.3,1.212-0.792v-0.024
		c0-0.468-0.288-0.708-1.691-1.067c-1.69-0.432-2.782-0.899-2.782-2.567v-0.024c0-1.523,1.224-2.53,2.938-2.53
		c1.224,0,2.267,0.384,3.118,1.067l-0.959,1.391c-0.744-0.516-1.476-0.828-2.184-0.828c-0.707,0-1.079,0.324-1.079,0.731v0.024
		c0,0.551,0.359,0.731,1.812,1.103c1.702,0.444,2.662,1.056,2.662,2.519v0.024c0,1.667-1.271,2.603-3.082,2.603
		C666.092,359.804,664.809,359.36,663.801,358.461z"/>
	<path class="st0" d="M672.669,356.086v-4.797h1.847v4.75c0,1.367,0.684,2.075,1.811,2.075c1.128,0,1.812-0.684,1.812-2.015v-4.81
		h1.847v4.737c0,2.543-1.427,3.79-3.682,3.79S672.669,358.557,672.669,356.086z"/>
	<path class="st0" d="M682.616,351.289h1.847v6.716h4.186v1.679h-6.032V351.289z"/>
	<path class="st0" d="M691.542,352.992h-2.554v-1.703h6.956v1.703h-2.555v6.692h-1.848V352.992z"/>
	<path class="st0" d="M696.62,355.091h3.694v1.751h-3.694V355.091z"/>
	<path class="st0" d="M702.668,351.289h1.703l3.934,5.169v-5.169h1.823v8.396h-1.571l-4.066-5.337v5.337h-1.822V351.289z"/>
</g>
<g>
	<rect x="129.03" y="116.826" class="st0" width="4.103" height="58.527"/>
	
		<rect x="49.063" y="148.542" transform="matrix(0.7071 -0.7071 0.7071 0.7071 -78.2721 112.2206)" class="st0" width="94.527" height="4.102"/>
	
		<rect x="10.509" y="216.448" transform="matrix(0.5301 -0.8479 0.8479 0.5301 -163.5858 141.796)" class="st0" width="71.277" height="4.102"/>
	
		<rect x="139.86" y="216.448" transform="matrix(0.5301 -0.8479 0.8479 0.5301 -102.8072 251.4753)" class="st0" width="71.277" height="4.102"/>
	
		<rect x="215.343" y="182.86" transform="matrix(0.8479 -0.5301 0.5301 0.8479 -82.7723 148.4837)" class="st0" width="4.102" height="71.277"/>
	
		<rect x="85.992" y="182.86" transform="matrix(0.8479 -0.5301 0.5301 0.8479 -102.446 79.9082)" class="st0" width="4.102" height="71.277"/>
	
		<rect x="164.08" y="103.33" transform="matrix(0.7071 -0.7071 0.7071 0.7071 -57.8266 161.5811)" class="st0" width="4.102" height="94.527"/>
	<circle class="st2" cx="131.683" cy="112.619" r="16.461"/>
	<circle class="st3" cx="131.683" cy="182.679" r="16.461"/>
	<circle class="st3" cx="66.896" cy="182.679" r="16.461"/>
	<circle class="st3" cx="25.992" cy="249.792" r="16.461"/>
	<circle class="st3" cx="106.106" cy="249.792" r="16.461"/>
	<circle class="st3" cx="157.666" cy="249.792" r="16.461"/>
	<circle class="st2" cx="237.78" cy="249.792" r="16.461"/>
	<circle class="st2" cx="196.471" cy="182.679" r="16.461"/>
</g>
<g>
	<rect x="401.438" y="116.826" class="st0" width="4.103" height="58.527"/>
	
		<rect x="321.47" y="148.542" transform="matrix(0.7071 -0.7071 0.7071 0.7071 1.5143 304.8419)" class="st0" width="94.527" height="4.102"/>
	
		<rect x="282.916" y="216.448" transform="matrix(0.5301 -0.8479 0.8479 0.5301 -35.589 372.7752)" class="st0" width="71.277" height="4.102"/>
	
		<rect x="412.268" y="216.448" transform="matrix(0.5301 -0.8479 0.8479 0.5301 25.1896 482.4545)" class="st0" width="71.277" height="4.102"/>
	
		<rect x="487.751" y="182.86" transform="matrix(0.8479 -0.5301 0.5301 0.8479 -41.3409 292.8969)" class="st0" width="4.102" height="71.277"/>
	
		<rect x="358.399" y="182.86" transform="matrix(0.8479 -0.5301 0.5301 0.8479 -61.0142 224.3246)" class="st0" width="4.102" height="71.277"/>
	
		<rect x="436.488" y="103.33" transform="matrix(0.7071 -0.7071 0.7071 0.7071 21.9597 354.2014)" class="st0" width="4.102" height="94.527"/>
	<circle class="st2" cx="404.091" cy="112.619" r="16.461"/>
	<circle class="st3" cx="404.091" cy="182.679" r="16.461"/>
	<circle class="st2" cx="339.304" cy="182.679" r="16.461"/>
	<circle class="st2" cx="298.399" cy="249.792" r="16.461"/>
	<circle class="st3" cx="378.514" cy="249.792" r="16.461"/>
	<circle class="st3" cx="430.073" cy="249.792" r="16.461"/>
	<circle class="st3" cx="510.188" cy="249.792" r="16.461"/>
	<circle class="st3" cx="468.878" cy="182.679" r="16.461"/>
</g>
<g>
	<rect x="675.669" y="116.826" class="st0" width="4.102" height="58.527"/>
	
		<rect x="595.701" y="148.542" transform="matrix(0.7071 -0.7071 0.7071 0.7071 81.8346 498.7521)" class="st0" width="94.527" height="4.102"/>
	
		<rect x="557.147" y="216.448" transform="matrix(0.5301 -0.8479 0.8479 0.5301 93.2645 605.3004)" class="st0" width="71.278" height="4.102"/>
	
		<rect x="686.498" y="216.448" transform="matrix(0.5301 -0.8479 0.8479 0.5301 154.0433 714.9799)" class="st0" width="71.278" height="4.102"/>
	
		<rect x="761.982" y="182.86" transform="matrix(0.8479 -0.5302 0.5302 0.8479 0.3699 438.2874)" class="st0" width="4.102" height="71.278"/>
	
		<rect x="632.63" y="182.86" transform="matrix(0.8479 -0.5302 0.5302 0.8479 -19.3042 369.7113)" class="st0" width="4.102" height="71.278"/>
	
		<rect x="710.719" y="103.33" transform="matrix(0.7071 -0.7071 0.7071 0.7071 102.2816 548.1144)" class="st0" width="4.102" height="94.527"/>
	<circle class="st2" cx="678.322" cy="112.619" r="16.461"/>
	<circle class="st2" cx="678.322" cy="182.679" r="16.461"/>
	<circle class="st3" cx="613.535" cy="182.679" r="16.461"/>
	<circle class="st3" cx="572.63" cy="249.792" r="16.461"/>
	<circle class="st3" cx="652.744" cy="249.792" r="16.461"/>
	<circle class="st3" cx="704.304" cy="249.792" r="16.461"/>
	<circle class="st3" cx="784.419" cy="249.792" r="16.461"/>
	<circle class="st3" cx="743.109" cy="182.679" r="16.461"/>
</g>
<rect x="350.852" y="26.003" class="st0" width="106.884" height="31.568"/>
<g>
	<path class="st1" d="M366.339,36.668h3.979c3.354,0,5.67,2.302,5.67,5.305v0.03c0,3.003-2.317,5.335-5.67,5.335h-3.979V36.668z
		 M368.214,38.375v7.256h2.104c2.241,0,3.704-1.509,3.704-3.598v-0.031c0-2.088-1.463-3.628-3.704-3.628H368.214z"/>
	<path class="st1" d="M382.235,36.592h1.738l4.695,10.747h-1.981l-1.083-2.576h-5.045l-1.098,2.576h-1.92L382.235,36.592z
		 M384.917,43.101l-1.844-4.268l-1.829,4.268H384.917z"/>
	<path class="st1" d="M392.689,38.406h-3.384v-1.738h8.658v1.738h-3.384v8.933h-1.89V38.406z"/>
	<path class="st1" d="M403.296,36.592h1.738l4.695,10.747h-1.982l-1.083-2.576h-5.045l-1.098,2.576h-1.92L403.296,36.592z
		 M405.979,43.101l-1.844-4.268l-1.829,4.268H405.979z"/>
	<path class="st1" d="M411.602,45.784l1.128-1.342c1.021,0.884,2.059,1.387,3.369,1.387c1.158,0,1.891-0.549,1.891-1.341v-0.03
		c0-0.762-0.428-1.174-2.409-1.631c-2.271-0.549-3.552-1.219-3.552-3.186V39.61c0-1.829,1.524-3.094,3.644-3.094
		c1.555,0,2.789,0.472,3.872,1.341l-1.007,1.417c-0.96-0.716-1.92-1.097-2.896-1.097c-1.098,0-1.738,0.564-1.738,1.265v0.03
		c0,0.823,0.488,1.189,2.546,1.677c2.256,0.549,3.414,1.357,3.414,3.125v0.03c0,1.997-1.569,3.186-3.811,3.186
		C414.422,47.491,412.882,46.927,411.602,45.784z"/>
	<path class="st1" d="M423.017,36.668h7.911v1.677h-6.036v2.774h5.351v1.677h-5.351v2.866h6.112v1.677h-7.987V36.668z"/>
	<path class="st1" d="M436.794,38.406h-3.385v-1.738h8.658v1.738h-3.384v8.933h-1.89V38.406z"/>
</g>
<g>
	<g>
		<rect x="402.242" y="47.023" class="st0" width="4.103" height="32.706"/>
		<g>
			<polygon class="st0" points="410.43,77.933 404.293,88.56 398.157,77.933 			"/>
		</g>
	</g>
</g>
<rect x="330.225" y="513.1" class="st0" width="148.137" height="31.568"/>
<g>
	<path class="st1" d="M343.388,524.765h7.942v1.707h-6.067v2.911h5.381v1.708h-5.381v4.345h-1.875V524.765z"/>
	<path class="st1" d="M354.437,524.765h1.875v10.671h-1.875V524.765z"/>
	<path class="st1" d="M360.106,524.765h1.738l5.716,7.378v-7.378h1.844v10.671h-1.57l-5.884-7.592v7.592h-1.844V524.765z"/>
	<path class="st1" d="M376.871,524.688h1.738l4.695,10.747h-1.981l-1.083-2.576h-5.045l-1.098,2.576h-1.92L376.871,524.688z
		 M379.554,531.197l-1.844-4.268l-1.829,4.268H379.554z"/>
	<path class="st1" d="M386.075,524.765h1.875v8.964h5.609v1.707h-7.484V524.765z"/>
	<path class="st1" d="M401.97,524.765h4.756c1.341,0,2.393,0.396,3.08,1.067c0.563,0.578,0.884,1.371,0.884,2.301v0.031
		c0,1.753-1.052,2.805-2.53,3.231l2.881,4.04h-2.226l-2.622-3.72h-2.347v3.72h-1.875V524.765z M406.589,530.055
		c1.341,0,2.195-0.701,2.195-1.784v-0.03c0-1.144-0.823-1.769-2.21-1.769h-2.729v3.583H406.589z"/>
	<path class="st1" d="M413.934,524.765h7.911v1.677h-6.036v2.774h5.351v1.677h-5.351v2.865h6.112v1.678h-7.987V524.765z"/>
	<path class="st1" d="M424.372,533.881l1.128-1.342c1.021,0.884,2.059,1.387,3.369,1.387c1.158,0,1.891-0.549,1.891-1.342v-0.029
		c0-0.763-0.428-1.174-2.409-1.632c-2.271-0.549-3.552-1.22-3.552-3.186v-0.03c0-1.83,1.524-3.095,3.644-3.095
		c1.555,0,2.789,0.472,3.872,1.341l-1.007,1.418c-0.96-0.717-1.92-1.098-2.896-1.098c-1.098,0-1.738,0.564-1.738,1.266v0.03
		c0,0.823,0.488,1.188,2.546,1.677c2.256,0.549,3.414,1.357,3.414,3.125v0.03c0,1.997-1.569,3.187-3.811,3.187
		C427.192,535.588,425.652,535.023,424.372,533.881z"/>
	<path class="st1" d="M435.619,530.908v-6.144h1.875v6.067c0,1.98,1.021,3.033,2.698,3.033c1.661,0,2.683-0.991,2.683-2.957v-6.144
		h1.875v6.052c0,3.186-1.799,4.786-4.588,4.786C437.388,535.603,435.619,534.002,435.619,530.908z"/>
	<path class="st1" d="M448.269,524.765h1.875v8.964h5.609v1.707h-7.484V524.765z"/>
	<path class="st1" d="M459.745,526.502h-3.385v-1.737h8.658v1.737h-3.384v8.934h-1.89V526.502z"/>
</g>
<path class="st0" d="M561.01,458.051H247.577v-35.669H561.01V458.051z M251.679,453.949h305.229v-27.466H251.679V453.949z"/>
<g>
	<path class="st0" d="M261.816,435.098h1.997l3.247,5.045l3.247-5.045h1.997v10.67h-1.875v-7.652l-3.369,5.03h-0.061l-3.338-4.999
		v7.621h-1.844V435.098z"/>
	<path class="st0" d="M279.77,435.021h1.738l4.695,10.746h-1.981l-1.083-2.576h-5.045l-1.098,2.576h-1.92L279.77,435.021z
		 M282.452,441.53l-1.844-4.269l-1.829,4.269H282.452z"/>
	<path class="st0" d="M287.922,444.197l1.234-1.28c0.625,0.809,1.25,1.266,2.149,1.266c1.006,0,1.692-0.671,1.692-2.104v-6.981
		h1.936v7.042c0,1.266-0.381,2.211-1.006,2.836s-1.524,0.944-2.591,0.944C289.69,445.92,288.623,445.158,287.922,444.197z"/>
	<path class="st0" d="M297.98,440.463v-0.03c0-3.003,2.317-5.519,5.594-5.519s5.564,2.485,5.564,5.488v0.03
		c0,3.003-2.317,5.519-5.594,5.519S297.98,443.466,297.98,440.463z M307.172,440.463v-0.03c0-2.073-1.509-3.796-3.628-3.796
		c-2.119,0-3.598,1.692-3.598,3.766v0.03c0,2.073,1.509,3.78,3.628,3.78C305.693,444.213,307.172,442.536,307.172,440.463z"/>
	<path class="st0" d="M312.352,435.098h4.756c1.341,0,2.393,0.396,3.079,1.066c0.564,0.579,0.884,1.372,0.884,2.302v0.031
		c0,1.753-1.052,2.805-2.53,3.231l2.881,4.039h-2.226l-2.622-3.719h-2.347v3.719h-1.875V435.098z M316.97,440.387
		c1.341,0,2.195-0.701,2.195-1.783v-0.03c0-1.144-0.823-1.769-2.21-1.769h-2.729v3.582H316.97z"/>
	<path class="st0" d="M324.421,435.098h1.875v10.67h-1.875V435.098z"/>
	<path class="st0" d="M332.712,436.835h-3.384v-1.737h8.658v1.737h-3.384v8.933h-1.89V436.835z"/>
	<path class="st0" d="M344.051,441.561l-4.238-6.463h2.226l2.973,4.71l3.018-4.71h2.149l-4.238,6.417v4.253h-1.89V441.561z"/>
	<path class="st0" d="M357.37,435.098h2.073l3.216,8.201l3.201-8.201h2.027l-4.42,10.746h-1.662L357.37,435.098z"/>
	<path class="st0" d="M369.516,440.463v-0.03c0-3.003,2.317-5.519,5.594-5.519s5.564,2.485,5.564,5.488v0.03
		c0,3.003-2.317,5.519-5.594,5.519S369.516,443.466,369.516,440.463z M378.708,440.463v-0.03c0-2.073-1.509-3.796-3.628-3.796
		c-2.119,0-3.598,1.692-3.598,3.766v0.03c0,2.073,1.509,3.78,3.628,3.78C377.229,444.213,378.708,442.536,378.708,440.463z"/>
	<path class="st0" d="M385.93,436.835h-3.384v-1.737h8.658v1.737h-3.384v8.933h-1.89V436.835z"/>
	<path class="st0" d="M394.235,435.098h1.875v10.67h-1.875V435.098z"/>
	<path class="st0" d="M399.905,435.098h1.738l5.716,7.378v-7.378h1.844v10.67h-1.57l-5.884-7.591v7.591h-1.844V435.098z"/>
	<path class="st0" d="M412.417,440.463v-0.03c0-2.987,2.286-5.519,5.503-5.519c1.859,0,3.003,0.519,4.101,1.448l-1.189,1.418
		c-0.823-0.701-1.631-1.144-2.987-1.144c-1.967,0-3.46,1.723-3.46,3.766v0.03c0,2.195,1.447,3.811,3.628,3.811
		c1.006,0,1.92-0.319,2.576-0.808v-1.997h-2.729v-1.631h4.543v4.481c-1.052,0.899-2.561,1.662-4.451,1.662
		C414.612,445.951,412.417,443.572,412.417,440.463z"/>
	<path class="st0" d="M436.437,433.604h1.601l-6.89,14.115h-1.601L436.437,433.604z"/>
	<path class="st0" d="M449.481,435.021h1.737l4.695,10.746h-1.981l-1.082-2.576h-5.046l-1.098,2.576h-1.921L449.481,435.021z
		 M452.164,441.53l-1.845-4.269l-1.829,4.269H452.164z"/>
	<path class="st0" d="M456.246,435.098h2.073l3.217,8.201l3.201-8.201h2.027l-4.421,10.746h-1.661L456.246,435.098z"/>
	<path class="st0" d="M469.536,435.098h7.911v1.677h-6.036v2.774h5.351v1.677h-5.351v2.865h6.112v1.677h-7.987V435.098z"/>
	<path class="st0" d="M480.692,435.098h4.756c1.342,0,2.394,0.396,3.079,1.066c0.564,0.579,0.884,1.372,0.884,2.302v0.031
		c0,1.753-1.052,2.805-2.53,3.231l2.881,4.039h-2.226l-2.621-3.719h-2.348v3.719h-1.875V435.098z M485.311,440.387
		c1.342,0,2.195-0.701,2.195-1.783v-0.03c0-1.144-0.823-1.769-2.21-1.769h-2.729v3.582H485.311z"/>
	<path class="st0" d="M496.436,435.021h1.737l4.695,10.746h-1.981l-1.082-2.576h-5.046l-1.098,2.576h-1.921L496.436,435.021z
		 M499.118,441.53l-1.845-4.269l-1.829,4.269H499.118z"/>
	<path class="st0" d="M504.497,440.463v-0.03c0-2.987,2.286-5.519,5.503-5.519c1.859,0,3.003,0.519,4.101,1.448l-1.189,1.418
		c-0.823-0.701-1.631-1.144-2.987-1.144c-1.967,0-3.46,1.723-3.46,3.766v0.03c0,2.195,1.447,3.811,3.628,3.811
		c1.006,0,1.92-0.319,2.576-0.808v-1.997h-2.729v-1.631h4.543v4.481c-1.052,0.899-2.561,1.662-4.451,1.662
		C506.692,445.951,504.497,443.572,504.497,440.463z"/>
	<path class="st0" d="M517.969,435.098h1.875v10.67h-1.875V435.098z"/>
	<path class="st0" d="M523.639,435.098h1.737l5.717,7.378v-7.378h1.845v10.67h-1.57l-5.884-7.591v7.591h-1.845V435.098z"/>
	<path class="st0" d="M536.15,440.463v-0.03c0-2.987,2.286-5.519,5.503-5.519c1.859,0,3.003,0.519,4.101,1.448l-1.189,1.418
		c-0.823-0.701-1.631-1.144-2.987-1.144c-1.967,0-3.46,1.723-3.46,3.766v0.03c0,2.195,1.447,3.811,3.628,3.811
		c1.006,0,1.92-0.319,2.576-0.808v-1.997h-2.729v-1.631h4.542v4.481c-1.052,0.899-2.561,1.662-4.451,1.662
		C538.346,445.951,536.15,443.572,536.15,440.463z"/>
</g>
<g>
	<path class="st0" d="M73.596,279.144h3.273c2.639,0,4.462,1.811,4.462,4.174v0.024c0,2.363-1.823,4.198-4.462,4.198h-3.273V279.144
		z M75.443,280.811v5.062h1.427c1.512,0,2.531-1.02,2.531-2.507v-0.024c0-1.487-1.02-2.531-2.531-2.531H75.443z"/>
	<path class="st0" d="M83.724,279.144h6.332v1.643h-4.497v1.703h3.957v1.643h-3.957v1.763h4.558v1.643h-6.393V279.144z"/>
	<path class="st0" d="M92.136,283.365v-0.024c0-2.387,1.799-4.341,4.378-4.341c1.583,0,2.53,0.527,3.31,1.295l-1.175,1.355
		c-0.648-0.588-1.308-0.948-2.147-0.948c-1.415,0-2.435,1.175-2.435,2.615v0.024c0,1.439,0.996,2.639,2.435,2.639
		c0.96,0,1.548-0.384,2.207-0.983l1.176,1.187c-0.864,0.924-1.823,1.5-3.442,1.5C93.971,287.683,92.136,285.776,92.136,283.365z"/>
	<path class="st0" d="M102.192,279.144h1.847v8.396h-1.847V279.144z"/>
	<path class="st0" d="M106.308,286.316l1.092-1.308c0.755,0.624,1.547,1.02,2.507,1.02c0.755,0,1.211-0.3,1.211-0.792v-0.024
		c0-0.468-0.288-0.708-1.691-1.067c-1.69-0.432-2.782-0.899-2.782-2.567v-0.024c0-1.523,1.224-2.53,2.938-2.53
		c1.224,0,2.267,0.384,3.118,1.067l-0.959,1.391c-0.744-0.516-1.476-0.828-2.184-0.828c-0.707,0-1.079,0.324-1.079,0.731v0.024
		c0,0.551,0.359,0.731,1.811,1.103c1.703,0.444,2.663,1.056,2.663,2.519v0.024c0,1.667-1.271,2.603-3.082,2.603
		C108.599,287.659,107.316,287.215,106.308,286.316z"/>
	<path class="st0" d="M115.392,279.144h1.847v8.396h-1.847V279.144z"/>
	<path class="st0" d="M119.712,283.365v-0.024c0-2.387,1.883-4.341,4.474-4.341s4.449,1.931,4.449,4.317v0.024
		c0,2.387-1.883,4.342-4.474,4.342S119.712,285.752,119.712,283.365z M126.705,283.365v-0.024c0-1.439-1.056-2.639-2.543-2.639
		s-2.519,1.175-2.519,2.615v0.024c0,1.439,1.056,2.639,2.543,2.639S126.705,284.805,126.705,283.365z"/>
	<path class="st0" d="M131.028,279.144h1.703l3.934,5.169v-5.169h1.823v8.396h-1.571l-4.066-5.337v5.337h-1.822V279.144z"/>
	<path class="st0" d="M147.549,280.847h-2.554v-1.703h6.956v1.703h-2.555v6.692h-1.848V280.847z"/>
	<path class="st0" d="M154.116,279.144h3.838c1.067,0,1.895,0.3,2.446,0.852c0.468,0.468,0.72,1.127,0.72,1.919v0.024
		c0,1.355-0.731,2.207-1.799,2.603l2.051,2.999h-2.159l-1.799-2.687h-1.451v2.687h-1.847V279.144z M157.833,283.222
		c0.899,0,1.415-0.48,1.415-1.188v-0.024c0-0.792-0.552-1.2-1.451-1.2h-1.835v2.411H157.833z"/>
	<path class="st0" d="M163.536,279.144h6.332v1.643h-4.497v1.703h3.957v1.643h-3.957v1.763h4.558v1.643h-6.393V279.144z"/>
	<path class="st0" d="M172.32,279.144h6.332v1.643h-4.497v1.703h3.957v1.643h-3.957v1.763h4.558v1.643h-6.393V279.144z"/>
	<path class="st0" d="M180.695,282.946h3.694v1.751h-3.694V282.946z"/>
	<path class="st0" d="M187.51,280.955l-1.463,0.36l-0.384-1.511l2.41-0.72h1.26v8.456h-1.823V280.955z"/>
</g>
<g>
	<path class="st0" d="M346.004,279.144h3.273c2.639,0,4.462,1.811,4.462,4.174v0.024c0,2.363-1.823,4.198-4.462,4.198h-3.273
		V279.144z M347.851,280.811v5.062h1.427c1.512,0,2.531-1.02,2.531-2.507v-0.024c0-1.487-1.02-2.531-2.531-2.531H347.851z"/>
	<path class="st0" d="M356.132,279.144h6.332v1.643h-4.497v1.703h3.957v1.643h-3.957v1.763h4.558v1.643h-6.393V279.144z"/>
	<path class="st0" d="M364.544,283.365v-0.024c0-2.387,1.799-4.341,4.378-4.341c1.583,0,2.53,0.527,3.31,1.295l-1.175,1.355
		c-0.648-0.588-1.308-0.948-2.147-0.948c-1.415,0-2.435,1.175-2.435,2.615v0.024c0,1.439,0.996,2.639,2.435,2.639
		c0.96,0,1.548-0.384,2.207-0.983l1.176,1.187c-0.864,0.924-1.823,1.5-3.442,1.5C366.379,287.683,364.544,285.776,364.544,283.365z"
		/>
	<path class="st0" d="M374.6,279.144h1.847v8.396H374.6V279.144z"/>
	<path class="st0" d="M378.716,286.316l1.092-1.308c0.755,0.624,1.547,1.02,2.507,1.02c0.755,0,1.211-0.3,1.211-0.792v-0.024
		c0-0.468-0.288-0.708-1.691-1.067c-1.69-0.432-2.782-0.899-2.782-2.567v-0.024c0-1.523,1.224-2.53,2.938-2.53
		c1.224,0,2.267,0.384,3.118,1.067l-0.959,1.391c-0.744-0.516-1.476-0.828-2.184-0.828c-0.707,0-1.079,0.324-1.079,0.731v0.024
		c0,0.551,0.359,0.731,1.811,1.103c1.703,0.444,2.663,1.056,2.663,2.519v0.024c0,1.667-1.271,2.603-3.082,2.603
		C381.007,287.659,379.724,287.215,378.716,286.316z"/>
	<path class="st0" d="M387.8,279.144h1.847v8.396H387.8V279.144z"/>
	<path class="st0" d="M392.12,283.365v-0.024c0-2.387,1.883-4.341,4.474-4.341s4.449,1.931,4.449,4.317v0.024
		c0,2.387-1.883,4.342-4.474,4.342S392.12,285.752,392.12,283.365z M399.112,283.365v-0.024c0-1.439-1.056-2.639-2.543-2.639
		s-2.519,1.175-2.519,2.615v0.024c0,1.439,1.056,2.639,2.543,2.639S399.112,284.805,399.112,283.365z"/>
	<path class="st0" d="M403.436,279.144h1.703l3.934,5.169v-5.169h1.823v8.396h-1.571l-4.066-5.337v5.337h-1.822V279.144z"/>
	<path class="st0" d="M419.957,280.847h-2.554v-1.703h6.956v1.703h-2.555v6.692h-1.848V280.847z"/>
	<path class="st0" d="M426.523,279.144h3.838c1.067,0,1.895,0.3,2.446,0.852c0.468,0.468,0.72,1.127,0.72,1.919v0.024
		c0,1.355-0.731,2.207-1.799,2.603l2.051,2.999h-2.159l-1.799-2.687h-1.451v2.687h-1.847V279.144z M430.241,283.222
		c0.899,0,1.415-0.48,1.415-1.188v-0.024c0-0.792-0.552-1.2-1.451-1.2h-1.835v2.411H430.241z"/>
	<path class="st0" d="M435.943,279.144h6.332v1.643h-4.497v1.703h3.957v1.643h-3.957v1.763h4.558v1.643h-6.393V279.144z"/>
	<path class="st0" d="M444.728,279.144h6.332v1.643h-4.497v1.703h3.957v1.643h-3.957v1.763h4.558v1.643h-6.393V279.144z"/>
	<path class="st0" d="M453.103,282.946h3.694v1.751h-3.694V282.946z"/>
	<path class="st0" d="M459.918,280.955l-1.463,0.36l-0.384-1.511l2.41-0.72h1.26v8.456h-1.823V280.955z"/>
</g>
<g>
	<path class="st0" d="M620.234,279.144h3.273c2.639,0,4.462,1.811,4.462,4.174v0.024c0,2.363-1.823,4.198-4.462,4.198h-3.273
		V279.144z M622.081,280.811v5.062h1.427c1.512,0,2.531-1.02,2.531-2.507v-0.024c0-1.487-1.02-2.531-2.531-2.531H622.081z"/>
	<path class="st0" d="M630.362,279.144h6.332v1.643h-4.497v1.703h3.957v1.643h-3.957v1.763h4.558v1.643h-6.393V279.144z"/>
	<path class="st0" d="M638.774,283.365v-0.024c0-2.387,1.799-4.341,4.378-4.341c1.583,0,2.53,0.527,3.31,1.295l-1.175,1.355
		c-0.648-0.588-1.308-0.948-2.147-0.948c-1.415,0-2.435,1.175-2.435,2.615v0.024c0,1.439,0.996,2.639,2.435,2.639
		c0.96,0,1.548-0.384,2.207-0.983l1.176,1.187c-0.864,0.924-1.823,1.5-3.442,1.5C640.609,287.683,638.774,285.776,638.774,283.365z"
		/>
	<path class="st0" d="M648.83,279.144h1.847v8.396h-1.847V279.144z"/>
	<path class="st0" d="M652.946,286.316l1.092-1.308c0.755,0.624,1.547,1.02,2.507,1.02c0.755,0,1.211-0.3,1.211-0.792v-0.024
		c0-0.468-0.288-0.708-1.691-1.067c-1.69-0.432-2.782-0.899-2.782-2.567v-0.024c0-1.523,1.224-2.53,2.938-2.53
		c1.224,0,2.267,0.384,3.118,1.067l-0.959,1.391c-0.744-0.516-1.476-0.828-2.184-0.828c-0.707,0-1.079,0.324-1.079,0.731v0.024
		c0,0.551,0.359,0.731,1.811,1.103c1.703,0.444,2.663,1.056,2.663,2.519v0.024c0,1.667-1.271,2.603-3.082,2.603
		C655.237,287.659,653.954,287.215,652.946,286.316z"/>
	<path class="st0" d="M662.03,279.144h1.847v8.396h-1.847V279.144z"/>
	<path class="st0" d="M666.351,283.365v-0.024c0-2.387,1.883-4.341,4.474-4.341s4.449,1.931,4.449,4.317v0.024
		c0,2.387-1.883,4.342-4.474,4.342S666.351,285.752,666.351,283.365z M673.343,283.365v-0.024c0-1.439-1.056-2.639-2.543-2.639
		s-2.519,1.175-2.519,2.615v0.024c0,1.439,1.056,2.639,2.543,2.639S673.343,284.805,673.343,283.365z"/>
	<path class="st0" d="M677.666,279.144h1.703l3.934,5.169v-5.169h1.823v8.396h-1.571l-4.066-5.337v5.337h-1.822V279.144z"/>
	<path class="st0" d="M694.188,280.847h-2.554v-1.703h6.956v1.703h-2.555v6.692h-1.848V280.847z"/>
	<path class="st0" d="M700.754,279.144h3.838c1.067,0,1.895,0.3,2.446,0.852c0.468,0.468,0.72,1.127,0.72,1.919v0.024
		c0,1.355-0.731,2.207-1.799,2.603l2.051,2.999h-2.159l-1.799-2.687h-1.451v2.687h-1.847V279.144z M704.472,283.222
		c0.899,0,1.415-0.48,1.415-1.188v-0.024c0-0.792-0.552-1.2-1.451-1.2h-1.835v2.411H704.472z"/>
	<path class="st0" d="M710.174,279.144h6.332v1.643h-4.497v1.703h3.957v1.643h-3.957v1.763h4.558v1.643h-6.393V279.144z"/>
	<path class="st0" d="M718.958,279.144h6.332v1.643h-4.497v1.703h3.957v1.643h-3.957v1.763h4.558v1.643h-6.393V279.144z"/>
	<path class="st0" d="M727.333,282.946h3.694v1.751h-3.694V282.946z"/>
	<path class="st0" d="M734.148,280.955l-1.463,0.36l-0.384-1.511l2.41-0.72h1.26v8.456h-1.823V280.955z"/>
</g>
<g>
	<path class="st0" d="M101.922,351.289h3.838c1.067,0,1.895,0.3,2.446,0.852c0.468,0.468,0.72,1.127,0.72,1.919v0.024
		c0,1.355-0.731,2.207-1.799,2.603l2.051,2.999h-2.159l-1.799-2.687h-1.451v2.687h-1.847V351.289z M105.64,355.367
		c0.899,0,1.415-0.48,1.415-1.188v-0.024c0-0.792-0.552-1.2-1.451-1.2h-1.835v2.411H105.64z"/>
	<path class="st0" d="M111.342,351.289h6.332v1.643h-4.497v1.703h3.957v1.643h-3.957v1.763h4.558v1.643h-6.393V351.289z"/>
	<path class="st0" d="M119.55,358.461l1.092-1.308c0.755,0.624,1.547,1.02,2.507,1.02c0.755,0,1.211-0.3,1.211-0.792v-0.024
		c0-0.468-0.288-0.708-1.691-1.067c-1.69-0.432-2.782-0.899-2.782-2.567v-0.024c0-1.523,1.224-2.53,2.938-2.53
		c1.224,0,2.267,0.384,3.118,1.067l-0.959,1.391c-0.744-0.516-1.476-0.828-2.184-0.828c-0.707,0-1.079,0.324-1.079,0.731v0.024
		c0,0.551,0.359,0.731,1.811,1.103c1.703,0.444,2.663,1.056,2.663,2.519v0.024c0,1.667-1.271,2.603-3.082,2.603
		C121.841,359.804,120.558,359.36,119.55,358.461z"/>
	<path class="st0" d="M128.418,356.086v-4.797h1.847v4.75c0,1.367,0.684,2.075,1.811,2.075c1.128,0,1.812-0.684,1.812-2.015v-4.81
		h1.847v4.737c0,2.543-1.427,3.79-3.682,3.79S128.418,358.557,128.418,356.086z"/>
	<path class="st0" d="M138.365,351.289h1.847v6.716h4.186v1.679h-6.032V351.289z"/>
	<path class="st0" d="M147.292,352.992h-2.554v-1.703h6.956v1.703h-2.555v6.692h-1.848V352.992z"/>
	<path class="st0" d="M152.369,355.091h3.694v1.751h-3.694V355.091z"/>
	<path class="st0" d="M159.185,353.1l-1.463,0.36l-0.384-1.511l2.41-0.72h1.26v8.456h-1.823V353.1z"/>
</g>
<g>
	<path class="st0" d="M372.943,351.289h3.838c1.067,0,1.895,0.3,2.446,0.852c0.468,0.468,0.72,1.127,0.72,1.919v0.024
		c0,1.355-0.731,2.207-1.799,2.603l2.051,2.999h-2.159l-1.799-2.687h-1.451v2.687h-1.847V351.289z M376.661,355.367
		c0.899,0,1.415-0.48,1.415-1.188v-0.024c0-0.792-0.552-1.2-1.451-1.2h-1.835v2.411H376.661z"/>
	<path class="st0" d="M382.363,351.289h6.332v1.643h-4.497v1.703h3.957v1.643h-3.957v1.763h4.558v1.643h-6.393V351.289z"/>
	<path class="st0" d="M390.571,358.461l1.092-1.308c0.755,0.624,1.547,1.02,2.506,1.02c0.756,0,1.212-0.3,1.212-0.792v-0.024
		c0-0.468-0.288-0.708-1.691-1.067c-1.69-0.432-2.782-0.899-2.782-2.567v-0.024c0-1.523,1.224-2.53,2.938-2.53
		c1.224,0,2.267,0.384,3.118,1.067l-0.959,1.391c-0.744-0.516-1.476-0.828-2.184-0.828c-0.707,0-1.079,0.324-1.079,0.731v0.024
		c0,0.551,0.359,0.731,1.812,1.103c1.702,0.444,2.662,1.056,2.662,2.519v0.024c0,1.667-1.271,2.603-3.082,2.603
		C392.862,359.804,391.579,359.36,390.571,358.461z"/>
	<path class="st0" d="M399.439,356.086v-4.797h1.847v4.75c0,1.367,0.684,2.075,1.811,2.075c1.128,0,1.812-0.684,1.812-2.015v-4.81
		h1.847v4.737c0,2.543-1.427,3.79-3.682,3.79S399.439,358.557,399.439,356.086z"/>
	<path class="st0" d="M409.387,351.289h1.847v6.716h4.186v1.679h-6.032V351.289z"/>
	<path class="st0" d="M418.313,352.992h-2.554v-1.703h6.956v1.703h-2.555v6.692h-1.848V352.992z"/>
	<path class="st0" d="M423.391,355.091h3.694v1.751h-3.694V355.091z"/>
	<path class="st0" d="M429.02,358.221l2.794-2.291c1.044-0.864,1.451-1.319,1.451-2.015c0-0.708-0.468-1.091-1.127-1.091
		c-0.647,0-1.092,0.36-1.715,1.127l-1.296-1.043c0.828-1.127,1.632-1.739,3.131-1.739c1.739,0,2.89,1.019,2.89,2.59v0.024
		c0,1.403-0.719,2.099-2.206,3.25l-1.367,1.055h3.657v1.595h-6.212V358.221z"/>
</g>
<g>
	<path class="st0" d="M646.173,351.289h3.838c1.067,0,1.895,0.3,2.446,0.852c0.468,0.468,0.72,1.127,0.72,1.919v0.024
		c0,1.355-0.731,2.207-1.799,2.603l2.051,2.999h-2.159l-1.799-2.687h-1.451v2.687h-1.847V351.289z M649.891,355.367
		c0.899,0,1.415-0.48,1.415-1.188v-0.024c0-0.792-0.552-1.2-1.451-1.2h-1.835v2.411H649.891z"/>
	<path class="st0" d="M655.593,351.289h6.332v1.643h-4.497v1.703h3.957v1.643h-3.957v1.763h4.558v1.643h-6.393V351.289z"/>
	<path class="st0" d="M663.801,358.461l1.092-1.308c0.755,0.624,1.547,1.02,2.506,1.02c0.756,0,1.212-0.3,1.212-0.792v-0.024
		c0-0.468-0.288-0.708-1.691-1.067c-1.69-0.432-2.782-0.899-2.782-2.567v-0.024c0-1.523,1.224-2.53,2.938-2.53
		c1.224,0,2.267,0.384,3.118,1.067l-0.959,1.391c-0.744-0.516-1.476-0.828-2.184-0.828c-0.707,0-1.079,0.324-1.079,0.731v0.024
		c0,0.551,0.359,0.731,1.812,1.103c1.702,0.444,2.662,1.056,2.662,2.519v0.024c0,1.667-1.271,2.603-3.082,2.603
		C666.092,359.804,664.809,359.36,663.801,358.461z"/>
	<path class="st0" d="M672.669,356.086v-4.797h1.847v4.75c0,1.367,0.684,2.075,1.811,2.075c1.128,0,1.812-0.684,1.812-2.015v-4.81
		h1.847v4.737c0,2.543-1.427,3.79-3.682,3.79S672.669,358.557,672.669,356.086z"/>
	<path class="st0" d="M682.616,351.289h1.847v6.716h4.186v1.679h-6.032V351.289z"/>
	<path class="st0" d="M691.543,352.992h-2.554v-1.703h6.956v1.703h-2.555v6.692h-1.848V352.992z"/>
	<path class="st0" d="M696.62,355.091h3.694v1.751h-3.694V355.091z"/>
	<path class="st0" d="M702.669,351.289h1.703l3.934,5.169v-5.169h1.823v8.396h-1.571l-4.066-5.337v5.337h-1.822V351.289z"/>
</g>
<g>
	<rect x="129.03" y="116.826" class="st0" width="4.103" height="58.527"/>
	
		<rect x="49.063" y="148.542" transform="matrix(0.7071 -0.7071 0.7071 0.7071 -78.2721 112.2206)" class="st0" width="94.527" height="4.102"/>
	
		<rect x="10.509" y="216.448" transform="matrix(0.5301 -0.8479 0.8479 0.5301 -163.5858 141.796)" class="st0" width="71.277" height="4.102"/>
	
		<rect x="139.86" y="216.448" transform="matrix(0.5301 -0.8479 0.8479 0.5301 -102.8072 251.4753)" class="st0" width="71.277" height="4.102"/>
	
		<rect x="215.343" y="182.86" transform="matrix(0.8479 -0.5301 0.5301 0.8479 -82.7723 148.4837)" class="st0" width="4.102" height="71.277"/>
	
		<rect x="85.992" y="182.86" transform="matrix(0.8479 -0.5301 0.5301 0.8479 -102.446 79.9082)" class="st0" width="4.102" height="71.277"/>
	
		<rect x="164.08" y="103.33" transform="matrix(0.7071 -0.7071 0.7071 0.7071 -57.8266 161.5811)" class="st0" width="4.102" height="94.527"/>
	<circle class="st2" cx="131.683" cy="112.619" r="16.461"/>
	<circle class="st3" cx="131.683" cy="182.679" r="16.461"/>
	<circle class="st3" cx="66.896" cy="182.679" r="16.461"/>
	<circle class="st3" cx="25.992" cy="249.792" r="16.461"/>
	<circle class="st3" cx="106.106" cy="249.792" r="16.461"/>
	<circle class="st3" cx="157.666" cy="249.792" r="16.461"/>
	<circle class="st2" cx="237.78" cy="249.792" r="16.461"/>
	<circle class="st2" cx="196.471" cy="182.679" r="16.461"/>
</g>
<g>
	<rect x="401.438" y="116.826" class="st0" width="4.103" height="58.527"/>
	
		<rect x="321.47" y="148.542" transform="matrix(0.7071 -0.7071 0.7071 0.7071 1.5143 304.8419)" class="st0" width="94.527" height="4.102"/>
	
		<rect x="282.916" y="216.448" transform="matrix(0.5301 -0.8479 0.8479 0.5301 -35.589 372.7752)" class="st0" width="71.277" height="4.102"/>
	
		<rect x="412.268" y="216.448" transform="matrix(0.5301 -0.8479 0.8479 0.5301 25.1896 482.4545)" class="st0" width="71.277" height="4.102"/>
	
		<rect x="487.751" y="182.86" transform="matrix(0.8479 -0.5301 0.5301 0.8479 -41.3409 292.8969)" class="st0" width="4.102" height="71.277"/>
	
		<rect x="358.399" y="182.86" transform="matrix(0.8479 -0.5301 0.5301 0.8479 -61.0142 224.3246)" class="st0" width="4.102" height="71.277"/>
	
		<rect x="436.488" y="103.33" transform="matrix(0.7071 -0.7071 0.7071 0.7071 21.9597 354.2014)" class="st0" width="4.102" height="94.527"/>
	<circle class="st2" cx="404.091" cy="112.619" r="16.461"/>
	<circle class="st3" cx="404.091" cy="182.679" r="16.461"/>
	<circle class="st2" cx="339.304" cy="182.679" r="16.461"/>
	<circle class="st2" cx="298.399" cy="249.792" r="16.461"/>
	<circle class="st3" cx="378.514" cy="249.792" r="16.461"/>
	<circle class="st3" cx="430.073" cy="249.792" r="16.461"/>
	<circle class="st3" cx="510.188" cy="249.792" r="16.461"/>
	<circle class="st3" cx="468.878" cy="182.679" r="16.461"/>
</g>
<g>
	<rect x="675.669" y="116.826" class="st0" width="4.102" height="58.527"/>
	
		<rect x="595.701" y="148.542" transform="matrix(0.7071 -0.7071 0.7071 0.7071 81.8346 498.7521)" class="st0" width="94.527" height="4.102"/>
	
		<rect x="557.147" y="216.448" transform="matrix(0.5301 -0.8479 0.8479 0.5301 93.2645 605.3004)" class="st0" width="71.278" height="4.102"/>
	
		<rect x="686.498" y="216.448" transform="matrix(0.5301 -0.8479 0.8479 0.5301 154.0433 714.9799)" class="st0" width="71.278" height="4.102"/>
	
		<rect x="761.982" y="182.86" transform="matrix(0.8479 -0.5302 0.5302 0.8479 0.3699 438.2874)" class="st0" width="4.102" height="71.278"/>
	
		<rect x="632.63" y="182.86" transform="matrix(0.8479 -0.5302 0.5302 0.8479 -19.3042 369.7113)" class="st0" width="4.102" height="71.278"/>
	
		<rect x="710.719" y="103.33" transform="matrix(0.7071 -0.7071 0.7071 0.7071 102.2816 548.1144)" class="st0" width="4.102" height="94.527"/>
	<circle class="st2" cx="678.322" cy="112.619" r="16.461"/>
	<circle class="st2" cx="678.322" cy="182.679" r="16.461"/>
	<circle class="st3" cx="613.535" cy="182.679" r="16.461"/>
	<circle class="st3" cx="572.63" cy="249.792" r="16.461"/>
	<circle class="st3" cx="652.744" cy="249.792" r="16.461"/>
	<circle class="st3" cx="704.304" cy="249.792" r="16.461"/>
	<circle class="st3" cx="784.419" cy="249.792" r="16.461"/>
	<circle class="st3" cx="743.109" cy="182.679" r="16.461"/>
</g>
<rect x="350.852" y="26.003" class="st0" width="106.884" height="31.568"/>
<g>
	<path class="st1" d="M366.339,36.668h3.979c3.354,0,5.67,2.302,5.67,5.305v0.03c0,3.003-2.317,5.335-5.67,5.335h-3.979V36.668z
		 M368.214,38.375v7.256h2.104c2.241,0,3.704-1.509,3.704-3.598v-0.031c0-2.088-1.463-3.628-3.704-3.628H368.214z"/>
	<path class="st1" d="M382.235,36.592h1.738l4.695,10.747h-1.981l-1.083-2.576h-5.045l-1.098,2.576h-1.92L382.235,36.592z
		 M384.917,43.101l-1.844-4.268l-1.829,4.268H384.917z"/>
	<path class="st1" d="M392.689,38.406h-3.384v-1.738h8.658v1.738h-3.384v8.933h-1.89V38.406z"/>
	<path class="st1" d="M403.297,36.592h1.738l4.695,10.747h-1.981l-1.083-2.576h-5.045l-1.098,2.576h-1.92L403.297,36.592z
		 M405.979,43.101l-1.844-4.268l-1.829,4.268H405.979z"/>
	<path class="st1" d="M411.602,45.784l1.128-1.342c1.021,0.884,2.059,1.387,3.369,1.387c1.158,0,1.891-0.549,1.891-1.341v-0.03
		c0-0.762-0.428-1.174-2.409-1.631c-2.271-0.549-3.552-1.219-3.552-3.186V39.61c0-1.829,1.524-3.094,3.644-3.094
		c1.555,0,2.789,0.472,3.872,1.341l-1.007,1.417c-0.96-0.716-1.92-1.097-2.896-1.097c-1.098,0-1.738,0.564-1.738,1.265v0.03
		c0,0.823,0.488,1.189,2.546,1.677c2.256,0.549,3.414,1.357,3.414,3.125v0.03c0,1.997-1.569,3.186-3.811,3.186
		C414.422,47.491,412.882,46.927,411.602,45.784z"/>
	<path class="st1" d="M423.017,36.668h7.911v1.677h-6.036v2.774h5.351v1.677h-5.351v2.866h6.112v1.677h-7.987V36.668z"/>
	<path class="st1" d="M436.794,38.406h-3.385v-1.738h8.658v1.738h-3.384v8.933h-1.89V38.406z"/>
</g>
<g>
	<g>
		<rect x="129.834" y="293.712" class="st0" width="4.103" height="32.706"/>
		<g>
			<polygon class="st0" points="138.022,324.623 131.886,335.249 125.75,324.623 			"/>
		</g>
	</g>
</g>
<g>
	<g>
		<rect x="402.242" y="293.712" class="st0" width="4.103" height="32.706"/>
		<g>
			<polygon class="st0" points="410.43,324.623 404.293,335.249 398.157,324.623 			"/>
		</g>
	</g>
</g>
<g>
	<g>
		<rect x="402.242" y="373.547" class="st0" width="4.103" height="32.706"/>
		<g>
			<polygon class="st0" points="410.43,404.458 404.293,415.084 398.157,404.458 			"/>
		</g>
	</g>
</g>
<g>
	<g>
		<rect x="402.242" y="464.648" class="st0" width="4.103" height="32.705"/>
		<g>
			<polygon class="st0" points="410.43,495.558 404.293,506.185 398.157,495.558 			"/>
		</g>
	</g>
</g>
<g>
	<g>
		<rect x="676.474" y="293.712" class="st0" width="4.102" height="32.706"/>
		<g>
			<polygon class="st0" points="684.661,324.623 678.524,335.249 672.388,324.623 			"/>
		</g>
	</g>
</g>
<g>
	<polygon class="st0" points="232.389,441.441 128.765,441.441 128.765,373.547 132.868,373.547 132.868,437.34 232.389,437.34 	"/>
	<g>
		<polygon class="st0" points="230.593,445.527 241.22,439.391 230.593,433.254 		"/>
	</g>
</g>
<g>
	<polygon class="st0" points="132.868,79.729 128.765,79.729 128.765,40.105 356.66,40.105 356.66,44.208 132.868,44.208 	"/>
	<g>
		<polygon class="st0" points="124.68,77.933 130.816,88.56 136.953,77.933 		"/>
	</g>
</g>
<g>
	<polygon class="st0" points="680.113,79.729 676.012,79.729 676.012,44.208 452.22,44.208 452.22,40.105 680.113,40.105 	"/>
	<g>
		<polygon class="st0" points="671.926,77.933 678.063,88.56 684.199,77.933 		"/>
	</g>
</g>
<g>
	<polygon class="st0" points="680.833,441.441 577.21,441.441 577.21,437.34 676.731,437.34 676.731,373.547 680.833,373.547 	"/>
	<g>
		<polygon class="st0" points="579.005,433.254 568.379,439.391 579.005,445.527 		"/>
	</g>
</g>
</svg>
